<svg width="64" height="32" viewBox="0 0 64 32" fill="none" xmlns="http://www.w3.org/2000/svg">
<path fill-rule="evenodd" clip-rule="evenodd" d="M26.3594 7.88497H25.4823H25.4031C25.2448 7.88497 25.0951 7.96298 25.0048 8.0934C24.9504 8.17507 24.9231 8.27259 24.9244 8.37132C24.9244 9.98642 24.9244 11.6015 24.9244 13.2178C24.9244 15.4753 24.9244 17.7328 24.9244 19.9903C24.9244 20.8374 24.9108 21.6797 25.5256 22.355C26.5326 23.4606 28.5466 23.5496 29.9594 23.6483C31.9029 23.7836 34.1111 23.6971 35.9198 22.9194C36.0039 22.9559 36.093 22.9889 36.1845 23.0218C38.9333 23.9933 42 24.2283 44.8145 23.2485C45.0162 23.2046 45.725 22.8596 45.8673 22.9182C46.1939 23.051 46.5304 23.1558 46.8743 23.2326C48.3254 23.5301 49.8062 23.652 51.2871 23.5934H51.3081C52.1827 23.5934 53.0648 23.4911 53.9208 23.3253C54.6569 23.1827 55.4549 23.0279 56.0499 22.5488C57.0891 21.7126 56.8689 20.295 56.8689 19.1175C56.8689 17.8961 56.8689 16.6747 56.8689 15.4546C56.8689 15.1852 56.8689 14.9158 56.8689 14.6464C56.8652 14.3783 56.6474 14.1637 56.3814 14.1649H55.4264C54.8697 14.1637 54.3625 14.4867 54.1237 14.9938C54.0322 15.1852 53.9839 15.3949 53.9839 15.6082C53.9839 16.3627 53.9839 17.1184 53.9839 17.873C53.9839 18.4349 53.9839 18.9968 53.9839 19.5588C53.9839 19.95 54.125 20.7363 53.8095 21.0081C53.6586 21.1373 53.4594 21.1958 53.2652 21.2433C51.6458 21.6431 49.9399 21.6224 48.2945 21.3457C47.1155 21.147 47.3172 20.3718 47.3172 19.4271C47.3172 18.8725 47.3172 18.3191 47.3172 17.7645C47.3172 16.8881 47.4421 15.9068 47.2281 15.0511C46.6727 12.829 43.2249 12.8351 41.4038 12.7888C40.3869 12.7619 39.3676 12.8241 38.3606 12.9728C37.1915 13.1459 35.7342 13.2581 34.9511 14.2527C34.1396 15.2839 34.4649 16.7479 34.4649 17.9534C34.4649 18.5202 34.4649 19.087 34.4649 19.6538C34.4649 20.4157 34.5429 21.0763 33.6917 21.403C33.3911 21.5188 33.0645 21.5542 32.7429 21.5773C31.6419 21.659 30.5309 21.6236 29.4373 21.4725C28.4563 21.3372 27.6868 21.0056 27.7153 19.9062C27.7512 18.4885 27.8031 17.0758 27.8031 15.6533C27.8031 14.4465 27.8031 13.2386 27.8031 12.0318C27.8031 11.2273 27.8031 10.424 27.8031 9.61952C27.8031 9.522 27.8031 9.42571 27.8031 9.32819C27.8019 9.10513 27.7487 8.88572 27.6485 8.68581C27.4048 8.19336 26.905 7.88375 26.3594 7.88497ZM7.48866 7.88497H8.4437C8.82596 7.88497 9.19091 8.03733 9.46184 8.30916L9.49276 8.34207C9.56575 8.41886 9.63008 8.50419 9.68328 8.59439C9.81565 8.81624 9.88616 9.06978 9.88616 9.32819V23.1254C9.88616 23.2546 9.83544 23.3777 9.74389 23.4691C9.65235 23.5593 9.52988 23.6093 9.40122 23.6081H8.44617C8.24576 23.6081 8.04906 23.563 7.86845 23.4764C7.70144 23.3972 7.55175 23.2887 7.42433 23.1546C7.15835 22.8755 7.00619 22.5062 7 22.1198V8.37132C7.01113 8.10559 7.22515 7.89472 7.48866 7.88984V7.88497ZM18.8057 18.43C19.2906 18.38 19.7731 18.3228 20.2518 18.2691C20.3694 18.2557 20.4857 18.2423 20.6044 18.2423H20.6094V20.8716C20.6131 21.019 20.5624 21.1617 20.4659 21.2726C19.8919 21.865 18.5657 21.7553 17.8073 21.7821C17.0391 21.8089 16.2684 21.7894 15.5026 21.7236C14.9645 21.6773 14.2061 21.4335 13.8115 21.9333C13.7336 22.0332 13.6729 22.1441 13.6309 22.2648C13.5777 22.4123 13.5381 22.5634 13.5109 22.717C13.4527 22.9535 13.5752 23.1985 13.7991 23.2912C13.8758 23.3204 13.9599 23.3472 14.0527 23.3728C16.2511 23.7202 18.63 23.8129 20.816 23.3448C21.2885 23.2436 21.7611 23.1107 22.1755 22.867C22.6914 22.5634 23.0601 22.0844 23.2023 21.5091C23.2531 21.2994 23.2778 21.0837 23.2766 20.8679V10.7105C23.2766 10.4898 23.2469 10.2704 23.1887 10.0583C22.7013 8.26406 20.1912 8.07512 18.6325 7.93494C17.4931 7.83133 16.3426 7.86059 15.2094 8.02271C14.2098 8.16532 12.8985 8.3116 12.1327 9.02468L12.1006 9.05637C11.9323 9.23799 11.7925 9.44399 11.6837 9.66706C11.6243 9.79017 11.5748 9.91816 11.5352 10.0498C11.4461 10.3631 11.4016 10.6873 11.4004 11.0128V11.1188V15.9348C11.3967 15.9702 11.3967 16.0068 11.4004 16.0421C11.4202 16.1835 11.4474 16.3225 11.4857 16.4602C11.5909 16.8698 11.8 17.2428 12.0944 17.5438C12.1562 17.6072 12.2218 17.667 12.2899 17.7218C12.6028 17.9656 12.9604 18.1436 13.3426 18.246C15.1278 18.7189 16.9809 18.619 18.8057 18.43ZM20.6057 10.8714V16.1567C18.6585 16.3834 16.7385 16.676 14.7789 16.4017C14.7121 16.3907 14.6465 16.3749 14.5822 16.3542C14.5476 16.3444 14.5142 16.3347 14.482 16.3213C14.409 16.2932 14.3397 16.2518 14.2804 16.2006C14.2234 16.1518 14.1777 16.0909 14.1455 16.0238C14.101 15.9312 14.0725 15.8312 14.0589 15.7288V15.212V14.0479V12.8704V11.6661V11.4808C14.0404 11.014 14.1678 10.502 14.649 10.318C14.821 10.2521 15.0053 10.2278 15.1884 10.2046C16.0927 10.09 17.0032 9.99251 17.9162 10.0084C18.7735 10.023 19.7075 10.0937 20.4646 10.5252C20.5129 10.5739 20.55 10.6312 20.576 10.6946C20.5958 10.7507 20.6069 10.8104 20.6057 10.8714ZM39.4319 21.4786C39.8909 21.5176 40.3869 21.5371 40.8954 21.5371H41.0711C41.6525 21.5347 42.2327 21.4993 42.8104 21.4323C43.3251 21.4115 43.8273 21.2689 44.2764 21.0154L44.2974 20.9922C44.342 20.9496 44.3778 20.8972 44.4026 20.8411C44.4236 20.7838 44.4335 20.7241 44.431 20.6631V15.7849C44.431 15.724 44.4199 15.6642 44.3964 15.6082C44.3717 15.5509 44.3358 15.4997 44.2912 15.457L44.2789 15.4448C44.217 15.3924 44.149 15.3498 44.076 15.3168C43.043 14.9987 41.9642 14.8622 40.8867 14.9134C40.1594 14.9479 38.5709 14.9963 37.4995 15.4412L37.4835 15.4595C37.4612 15.4814 37.4414 15.5046 37.4241 15.5302C37.4068 15.5558 37.3919 15.5826 37.3795 15.6106C37.356 15.6667 37.3449 15.7264 37.3449 15.7874V20.6656C37.3449 20.7265 37.356 20.7862 37.3795 20.8423C37.4006 20.8911 37.429 20.9362 37.4637 20.9752L37.4835 20.9934L37.5057 21.0178C37.5602 21.0629 37.6208 21.1007 37.6851 21.13C38.2418 21.3384 38.8282 21.4566 39.422 21.4798L39.4319 21.4786ZM55.9819 9.57198H54.9254C54.365 9.57076 53.9097 10.0266 53.906 10.591V11.3931C53.9097 11.9574 54.3662 12.4133 54.9254 12.4133H55.9819C56.5423 12.4145 56.9975 11.9587 57.0012 11.3931V10.5922C56.9975 10.0266 56.5423 9.57076 55.9819 9.57198Z" fill="#1993FF"/>
</svg>