<svg width="48" height="48" viewBox="0 0 48 48" fill="none" xmlns="http://www.w3.org/2000/svg">
<g clip-path="url(#clip0_4931_34957)">
<path fill-rule="evenodd" clip-rule="evenodd" d="M37.1257 14.1275C37.559 14.6571 37.6905 15.3692 37.4305 16.0022C36.4951 18.2797 33.786 23.9969 28.2924 29.4904C22.7988 34.984 17.0817 37.6932 14.8042 38.6286C14.1712 38.8885 13.459 38.757 12.9294 38.3237L7.71208 34.055C6.7963 33.3057 6.72766 31.9295 7.56434 31.0929L13.0727 25.5845C13.8538 24.8034 15.1201 24.8034 15.9011 25.5845L18.4315 28.1148C18.628 28.3114 18.8617 28.466 19.132 28.5312C20.1344 28.7731 22.8449 29.1059 25.3764 26.5744C27.9079 24.0429 27.575 21.3324 27.3332 20.33C27.2679 20.0598 27.1133 19.8261 26.9168 19.6295L24.3864 17.0992C23.6054 16.3181 23.6054 15.0518 24.3864 14.2708L29.8948 8.76238C30.7315 7.9257 32.1077 7.99434 32.8569 8.91012L37.1257 14.1275Z" fill="#1993FF"/>
</g>
<defs>
<clipPath id="clip0_4931_34957">
<rect width="48" height="48" fill="white"/>
</clipPath>
</defs>
</svg>
