<svg width="100" height="100" viewBox="0 0 100 100" fill="none" xmlns="http://www.w3.org/2000/svg">
<path d="M54.7 81.2H22.3C21 81.2 20 80.2 20 78.9V39.3C20 38 21 37 22.3 37H54.7C56 37 57 38 57 39.3V78.9C57 80.2 56 81.2 54.7 81.2Z" fill="#FFC8C8"/>
<path d="M36.5 66.7L47.2 19C47.5 17.7 48.7 17 50 17.2L73.7 22.5C75 22.8 75.7 24 75.5 25.3L64.8 73C64.5 74.3 63.3 75 62 74.8L38.3 69.5C37.1 69.2 36.3 68 36.5 66.7Z" fill="white"/>
<path d="M62.5 75.9C62.3 75.9 62 75.9 61.8 75.8L38.1 70.5C36.3 70.1 35.2 68.3 35.6 66.5L46.3 18.8C46.7 17 48.5 15.9 50.3 16.3L74 21.6C75.8 22 76.9 23.8 76.5 25.6L65.8 73.3C65.4 74.8 64.1 75.9 62.5 75.9ZM37.5 66.9C37.3 67.6 37.8 68.3 38.5 68.5L62.2 73.8C62.9 74 63.6 73.5 63.8 72.8L74.5 25.1C74.7 24.4 74.2 23.7 73.5 23.5L49.8 18.2C49.1 18 48.4 18.5 48.2 19.2L37.5 66.9Z" fill="#D95C5C"/>
<path d="M35 60.3V11.3C35 10 36 9 37.3 9H61.6C62.9 9 63.9 10 63.9 11.3V60.2C63.9 61.5 62.9 62.5 61.6 62.5H37.3C36 62.6 35 61.5 35 60.3Z" fill="white"/>
<path d="M61.6 63.6H37.3C35.5 63.6 34 62.1 34 60.3V11.3C34 9.5 35.5 8 37.3 8H61.6C63.4 8 64.9 9.5 64.9 11.3V60.2C65 62.1 63.5 63.6 61.6 63.6ZM37.3 10C36.6 10 36 10.6 36 11.3V60.2C36 60.9 36.6 61.5 37.3 61.5H61.6C62.3 61.5 62.9 60.9 62.9 60.2V11.3C62.9 10.6 62.3 10 61.6 10H37.3Z" fill="#D95C5C"/>
<path d="M50.2001 40.4001L55.1 35.3001C55.7001 34.6001 55.3 33.6001 54.4 33.6001H44.6001C43.7001 33.6001 43.2 34.7001 43.9 35.3001L48.8 40.4001C49.1 40.9001 49.8001 40.9001 50.2001 40.4001Z" fill="#D95C5C"/>
<path d="M49.4999 25C48.4999 25 47.7 25.8 47.7 26.7V34.5H51.2V26.7C51.2 25.8 50.3999 25 49.4999 25Z" fill="#D95C5C"/>
<path d="M59.4 44.3001H39.5C38.9 44.3001 38.4 43.8001 38.4 43.2001C38.4 42.6001 38.9 42.1001 39.5 42.1001H59.4C60 42.1001 60.5 42.6001 60.5 43.2001C60.5 43.8001 60 44.3001 59.4 44.3001Z" fill="#D95C5C"/>
</svg>
