<svg width="48" height="48" viewBox="0 0 48 48" fill="none" xmlns="http://www.w3.org/2000/svg">
<path fill-rule="evenodd" clip-rule="evenodd" d="M7.68602 11.1852H40.2618C40.9815 11.1852 41.6716 11.4701 42.1803 11.9773C42.689 12.4844 42.9745 13.1721 42.9739 13.8891V32.4813C42.9745 33.1982 42.689 33.886 42.1803 34.3931C41.6716 34.9002 40.9815 35.1852 40.2618 35.1852H7.68602C6.18784 35.1841 4.97392 33.9738 4.97392 32.4813V13.8891C4.97392 12.3965 6.18784 11.1863 7.68602 11.1852ZM38.2143 31.1483C38.4574 31.1053 38.6722 30.9737 38.8114 30.7825C38.951 30.5916 39.0037 30.3566 38.9577 30.1294C38.9117 29.9022 38.771 29.7014 38.5664 29.5714L29.5148 23.8032L38.6352 16.7388C39.022 16.429 39.0716 15.8865 38.7468 15.5199C38.4219 15.1532 37.8425 15.0977 37.4448 15.3951L25.3787 24.74C24.5726 25.3626 23.4071 25.3626 22.601 24.74L10.5369 15.3951C10.2809 15.1901 9.92642 15.13 9.60968 15.2381C9.29294 15.3461 9.06317 15.6055 9.00862 15.9165C8.95408 16.2275 9.08324 16.5418 9.3465 16.7388L18.467 23.8032L9.41533 29.5714C9.12375 29.7404 8.95489 30.0453 8.97563 30.3655C8.99636 30.6856 9.20334 30.9693 9.51461 31.1042C9.82589 31.2391 10.1913 31.2035 10.4661 31.0115L19.9631 24.9557L21.4126 26.0779C22.9096 27.2343 25.0741 27.2343 26.5711 26.0779L28.0207 24.9557L37.5157 31.0115C37.7199 31.142 37.9713 31.1912 38.2143 31.1483Z" fill="#1993FF"/>
</svg>
