<svg width="100" height="100" viewBox="0 0 100 100" fill="none" xmlns="http://www.w3.org/2000/svg">
<path d="M53.7 81.8H20.3C19 81.8 18 80.8 18 79.5V31.9C18 30.6 19 29.6 20.3 29.6H53.7C55 29.6 56 30.6 56 31.9V79.5C56 80.8 55 81.8 53.7 81.8Z" fill="#D1EEFF"/>
<path d="M49 57C42.3 57 36.8 51.5 36.8 44.8V22.2C36.8 15.5 42.3 10 49 10C55.7 10 61.2 15.5 61.2 22.2V44.9C61.2 51.6 55.7 57 49 57Z" fill="white"/>
<path d="M49 58C41.7 58 35.8 52.1 35.8 44.8V22.2C35.8 14.9 41.7 9 49 9C56.3 9 62.2 14.9 62.2 22.2V44.8C62.2 52.1 56.2 58 49 58ZM49 11C42.8 11 37.8 16 37.8 22.2V44.8C37.8 51 42.8 56 49 56C55.2 56 60.2 51 60.2 44.8V22.2C60.2 16 55.1 11 49 11Z" fill="#1993FF"/>
<path d="M49 63.4C39.3 63.4 31.3 55.5 31.3 45.7C31.3 45.1 31.7 44.7 32.3 44.7C32.9 44.7 33.3 45.1 33.3 45.7C33.3 54.3 40.3 61.4 49 61.4C57.7 61.4 64.7 54.4 64.7 45.7C64.7 45.1 65.1 44.7 65.7 44.7C66.3 44.7 66.7 45.1 66.7 45.7C66.6 55.5 58.7 63.4 49 63.4Z" fill="#1993FF"/>
<path d="M49 70.6C48.4 70.6 48 70.2 48 69.6V62.4C48 61.8 48.4 61.4 49 61.4C49.6 61.4 50 61.8 50 62.4V69.6C50 70.2 49.5 70.6 49 70.6Z" fill="#1993FF"/>
<path d="M40 75H57.9C59.4 75 60.6 73.8 60.6 72.3C60.6 70.8 59.4 69.6 57.9 69.6H40C38.5 69.6 37.3 70.8 37.3 72.3C37.3 73.8 38.5 75 40 75Z" fill="white"/>
<path d="M57.9 76H40C38 76 36.3 74.4 36.3 72.3C36.3 70.2 37.9 68.6 40 68.6H57.9C59.9 68.6 61.6 70.2 61.6 72.3C61.6 74.4 60 76 57.9 76ZM40 70.6C39.1 70.6 38.3 71.4 38.3 72.3C38.3 73.2 39.1 74 40 74H57.9C58.8 74 59.6 73.2 59.6 72.3C59.6 71.4 58.8 70.6 57.9 70.6H40Z" fill="#1993FF"/>
<path d="M46.6 25.5H36.8C36.2 25.5 35.8 25.1 35.8 24.5C35.8 23.9 36.2 23.5 36.8 23.5H46.6C47.2 23.5 47.6 23.9 47.6 24.5C47.6 25.1 47.1 25.5 46.6 25.5Z" fill="#1993FF"/>
<path d="M46.6 31H36.8C36.2 31 35.8 30.6 35.8 30C35.8 29.4 36.2 29 36.8 29H46.6C47.2 29 47.6 29.4 47.6 30C47.6 30.6 47.1 31 46.6 31Z" fill="#1993FF"/>
<path d="M46.6 36.5H36.8C36.2 36.5 35.8 36.1 35.8 35.5C35.8 34.9 36.2 34.5 36.8 34.5H46.6C47.2 34.5 47.6 34.9 47.6 35.5C47.6 36.1 47.1 36.5 46.6 36.5Z" fill="#1993FF"/>
<path d="M46.6 42H36.8C36.2 42 35.8 41.6 35.8 41C35.8 40.4 36.2 40 36.8 40H46.6C47.2 40 47.6 40.4 47.6 41C47.6 41.6 47.1 42 46.6 42Z" fill="#1993FF"/>
</svg>