<svg width="40" height="40" viewBox="0 0 40 40" fill="none" xmlns="http://www.w3.org/2000/svg">
<path d="M9.66666 29.1162V9.91663C9.66666 8.1217 11.1217 6.66663 12.9167 6.66663C13.4822 6.66663 14.038 6.81423 14.5291 7.09484L31.3287 16.6946C32.8872 17.5851 33.4286 19.5704 32.5381 21.1289C32.2501 21.6327 31.8326 22.0503 31.3287 22.3382L14.5291 31.938C12.9707 32.8285 10.9854 32.2871 10.0949 30.7286C9.81426 30.2376 9.66666 29.6818 9.66666 29.1162Z" fill="#979797"/>
<mask id="mask0_4187_43691" style="mask-type:alpha" maskUnits="userSpaceOnUse" x="9" y="6" width="24" height="27">
<path d="M9.66666 29.1162V9.91663C9.66666 8.1217 11.1217 6.66663 12.9167 6.66663C13.4822 6.66663 14.038 6.81423 14.5291 7.09484L31.3287 16.6946C32.8872 17.5851 33.4286 19.5704 32.5381 21.1289C32.2501 21.6327 31.8326 22.0503 31.3287 22.3382L14.5291 31.938C12.9707 32.8285 10.9854 32.2871 10.0949 30.7286C9.81426 30.2376 9.66666 29.6818 9.66666 29.1162Z" fill="white"/>
</mask>
<g mask="url(#mask0_4187_43691)">
<rect width="40" height="40" fill="#1993FF"/>
</g>
</svg>