<svg width="100" height="100" viewBox="0 0 100 100" fill="none" xmlns="http://www.w3.org/2000/svg">
<path d="M60.7 58.5H13.3C12 58.5 11 57.5 11 56.2V23.3C11 22 12 21 13.3 21H60.7C62 21 63 22 63 23.3V56.2C63 57.4 62 58.5 60.7 58.5Z" fill="#EAD0FF"/>
<path d="M64.4999 62.2999C74.3306 62.2999 82.3 54.3306 82.3 44.5C82.3 34.6693 74.3306 26.7 64.4999 26.7C54.6693 26.7 46.7 34.6693 46.7 44.5C46.7 54.3306 54.6693 62.2999 64.4999 62.2999Z" fill="white"/>
<path d="M64.4999 63.2999C54.0999 63.2999 45.7 54.9 45.7 44.5C45.7 34.1 54.1999 25.7 64.4999 25.7C74.7999 25.7 83.3 34.1 83.3 44.5C83.3 54.9 74.8999 63.2999 64.4999 63.2999ZM64.4999 27.7C55.1999 27.7 47.7 35.2 47.7 44.5C47.7 53.7999 55.1999 61.2999 64.4999 61.2999C73.7999 61.2999 81.3 53.7999 81.3 44.5C81.3 35.2 73.7999 27.7 64.4999 27.7Z" fill="#CB5FFF"/>
<path d="M64.5 43.3C67.2062 43.3 69.4 41.1062 69.4 38.4C69.4 35.6938 67.2062 33.5 64.5 33.5C61.7938 33.5 59.6 35.6938 59.6 38.4C59.6 41.1062 61.7938 43.3 64.5 43.3Z" fill="#CB5FFF"/>
<path d="M72 45.1999C71.3 44.4999 70.2 44.3999 69.3 44.9999C68 45.9999 66.3 46.5999 64.5 46.5999C62.7 46.5999 61 45.9999 59.7 44.9999C58.9 44.3999 57.7 44.4999 57 45.1999C54.5 47.7999 53.4 51.2999 54.3 52.9999C55.8 55.7999 59.2999 56.4999 64.3999 56.4999C69.4999 56.4999 73 55.7999 74.5 52.9999C75.6 51.1999 74.5 47.7999 72 45.1999Z" fill="#CB5FFF"/>
<path d="M36.9999 62.2999C46.8306 62.2999 54.8 54.3306 54.8 44.5C54.8 34.6693 46.8306 26.7 36.9999 26.7C27.1693 26.7 19.2 34.6693 19.2 44.5C19.2 54.3306 27.1693 62.2999 36.9999 62.2999Z" fill="white"/>
<path d="M36.9999 63.2999C26.5999 63.2999 18.2 54.9 18.2 44.5C18.2 34.1 26.6999 25.7 36.9999 25.7C47.2999 25.7 55.8 34.1 55.8 44.5C55.8 54.9 47.3999 63.2999 36.9999 63.2999ZM36.9999 27.7C27.6999 27.7 20.2 35.2 20.2 44.5C20.2 53.7999 27.6999 61.2999 36.9999 61.2999C46.2999 61.2999 53.8 53.7999 53.8 44.5C53.8 35.2 46.2999 27.7 36.9999 27.7Z" fill="#CB5FFF"/>
<path d="M37 43.3C39.7062 43.3 41.9 41.1062 41.9 38.4C41.9 35.6938 39.7062 33.5 37 33.5C34.2938 33.5 32.1 35.6938 32.1 38.4C32.1 41.1062 34.2938 43.3 37 43.3Z" fill="#CB5FFF"/>
<path d="M44.5 45.1999C43.8 44.4999 42.7 44.3999 41.8 44.9999C40.5 45.9999 38.8 46.5999 37 46.5999C35.2 46.5999 33.5 45.9999 32.2 44.9999C31.4 44.3999 30.2 44.4999 29.5 45.1999C27 47.7999 25.9 51.2999 26.8 52.9999C28.3 55.7999 31.8 56.4999 36.9 56.4999C42 56.4999 45.5 55.7999 47 52.9999C48.1 51.1999 46.9 47.7999 44.5 45.1999Z" fill="#CB5FFF"/>
<path d="M51.6 77.7999C61.4307 77.7999 69.4 69.8306 69.4 60C69.4 50.1693 61.4307 42.2 51.6 42.2C41.7693 42.2 33.8 50.1693 33.8 60C33.8 69.8306 41.7693 77.7999 51.6 77.7999Z" fill="white"/>
<path d="M51.6 78.7999C41.2 78.7999 32.8 70.4 32.8 60C32.8 49.6 41.2 41.2 51.6 41.2C62 41.2 70.4 49.6 70.4 60C70.4 70.4 62 78.7999 51.6 78.7999ZM51.6 43.2C42.3 43.2 34.8 50.7 34.8 60C34.8 69.2999 42.3 76.7999 51.6 76.7999C60.9 76.7999 68.4 69.2999 68.4 60C68.4 50.7 60.9 43.2 51.6 43.2Z" fill="#CB5FFF"/>
<path d="M51.5999 58.6999C54.3061 58.6999 56.4999 56.5061 56.4999 53.7999C56.4999 51.0937 54.3061 48.8999 51.5999 48.8999C48.8937 48.8999 46.7 51.0937 46.7 53.7999C46.7 56.5061 48.8937 58.6999 51.5999 58.6999Z" fill="#CB5FFF"/>
<path d="M59.1 60.6C58.4 59.9 57.2999 59.8 56.3999 60.4C55.0999 61.4 53.4 62 51.6 62C49.8 62 48.1 61.4 46.8 60.4C46 59.8 44.8 59.9 44.1 60.6C41.6 63.2 40.4999 66.7 41.3999 68.4C42.8999 71.2 46.3999 71.8999 51.4999 71.8999C56.5999 71.8999 60.1 71.2 61.6 68.4C62.7 66.6 61.6 63.2 59.1 60.6Z" fill="#CB5FFF"/>
</svg>