<svg width="100" height="100" viewBox="0 0 100 100" fill="none" xmlns="http://www.w3.org/2000/svg">
<path d="M75.7 77.6001H6.3C5 77.6001 4 76.6001 4 75.3001V39.9001C4 38.6001 5 37.6001 6.3 37.6001H75.6C76.9 37.6001 77.9 38.6001 77.9 39.9001V75.2001C78 76.6001 77 77.6001 75.7 77.6001Z" fill="#D7EDAD"/>
<path d="M85 64H15.7C14.4 64 13.4 63 13.4 61.7V26.3C13.4 25 14.4 24 15.7 24H85C86.3 24 87.3 25 87.3 26.3V61.6C87.3 62.9 86.3 64 85 64Z" fill="white"/>
<path d="M85 65H15.7C13.9 65 12.4 63.5 12.4 61.7V26.3C12.4 24.5 13.9 23 15.7 23H85C86.8 23 88.3 24.5 88.3 26.3V61.6C88.3 63.5 86.8 65 85 65ZM15.7 25C15 25 14.4 25.6 14.4 26.3V61.6C14.4 62.3 15 62.9 15.7 62.9H85C85.7 62.9 86.3 62.3 86.3 61.6V26.3C86.3 25.6 85.7 25 85 25H15.7Z" fill="#99C14D"/>
<path d="M33.4 72.5001C33 72.5001 32.7 72.3001 32.5 71.9001C32.3 71.4001 32.5 70.8001 33 70.6001L49.9 63.1001C50.2 63.0001 50.6 63.0001 50.9 63.2001C51.2 63.4001 51.4 63.7001 51.4 64.0001V68.5001C51.4 69.1001 51 69.5001 50.4 69.5001C49.8 69.5001 49.4 69.1001 49.4 68.5001V65.5001L33.9 72.4001C33.7 72.4001 33.6 72.5001 33.4 72.5001Z" fill="#99C14D"/>
<path d="M67.2 72.5C67.1 72.5 66.9 72.5 66.8 72.4L51.3 65.5V68.5C51.3 69.1 50.9 69.5 50.3 69.5C49.7 69.5 49.3 69.1 49.3 68.5V64C49.3 63.7 49.5 63.3 49.8 63.2C50.1 63.1 50.4 63 50.8 63.1L67.7 70.6C68.2 70.8 68.4 71.4 68.2 71.9C68 72.2 67.6 72.5 67.2 72.5Z" fill="#99C14D"/>
<path d="M54 42.5001L46.6 38.2001C45.5 37.6001 44.1 38.4001 44.1 39.7001V48.2001C44.1 49.5001 45.5 50.3001 46.6 49.7001L54 45.4001C55.1 44.8001 55.1 43.1001 54 42.5001Z" fill="#99C14D"/>
</svg>